<?xml version="1.0" standalone="no"?>
<!DOCTYPE svg PUBLIC "-//W3C//DTD SVG 20010904//EN"
 "http://www.w3.org/TR/2001/REC-SVG-20010904/DTD/svg10.dtd">
<svg version="1.0" xmlns="http://www.w3.org/2000/svg"
 width="528.000000pt" height="423.000000pt" viewBox="0 0 528.000000 423.000000"
 preserveAspectRatio="xMidYMid meet">

<g transform="translate(0.000000,423.000000) scale(0.100000,-0.100000)"
fill="#000000" stroke="none">
<path d="M1668 3332 c-339 -196 -613 -360 -610 -364 4 -3 169 -100 367 -214
198 -114 368 -214 378 -222 15 -14 17 -42 17 -328 l0 -313 33 -24 c66 -50 225
-91 452 -119 143 -17 577 -17 715 0 246 30 420 79 462 129 10 12 14 96 18 346
l5 331 105 63 c58 35 111 63 118 63 9 0 12 -54 12 -239 l0 -239 -36 -36 c-36
-36 -37 -37 -30 -99 5 -55 2 -73 -31 -170 l-38 -108 25 -19 c34 -26 105 -50
150 -50 52 0 163 57 155 79 -53 138 -76 219 -69 251 15 68 -1 111 -52 135
l-34 16 0 253 c0 228 2 254 18 268 9 9 100 63 202 121 102 58 193 112 202 119
15 11 -60 57 -599 368 -339 195 -620 357 -624 358 -5 2 -9 -68 -9 -155 l1
-158 342 -196 c188 -108 342 -202 342 -208 0 -10 -76 -55 -532 -318 l-153 -88
0 -158 c0 -87 3 -156 8 -154 4 2 86 50 183 106 97 55 182 101 188 101 15 0 15
-413 1 -441 -23 -43 -161 -90 -337 -115 -141 -20 -542 -23 -673 -5 -104 14
-244 48 -285 68 -16 9 -42 27 -57 41 l-28 26 0 198 c0 109 3 198 8 198 4 0 70
-36 147 -81 77 -44 148 -85 158 -90 16 -9 17 1 17 148 l0 158 -345 200 c-190
110 -344 204 -342 208 1 5 156 97 345 205 l342 197 0 158 c0 86 -3 157 -7 156
-5 0 -285 -161 -625 -357z"/>
<path d="M2633 3107 l-253 -547 0 -137 c0 -79 4 -133 9 -128 5 6 120 250 255
543 l247 533 -3 142 -3 141 -252 -547z"/>
<path d="M3512 1450 c-56 -34 -77 -115 -48 -185 19 -45 58 -69 115 -70 l46 0
-1 -39 c-3 -72 -70 -92 -105 -31 -20 34 -51 46 -64 25 -9 -15 21 -75 50 -98
44 -35 99 -30 141 12 32 32 34 38 35 107 2 232 -4 259 -68 285 -44 19 -62 18
-101 -6z m91 -53 c26 -18 33 -81 13 -112 -35 -53 -106 -22 -106 47 0 62 50 97
93 65z"/>
<path d="M1590 1245 l0 -215 30 0 30 0 0 96 0 95 47 -3 c60 -4 73 -25 73 -120
l0 -68 30 0 30 0 0 65 c0 35 -7 85 -16 111 -14 42 -14 49 1 81 25 52 15 110
-25 146 -28 25 -37 27 -115 27 l-85 0 0 -215z m168 143 c16 -16 15 -73 0 -85
-19 -15 -67 -25 -89 -18 -16 5 -19 16 -19 61 l0 54 48 0 c26 0 53 -5 60 -12z"/>
<path d="M1900 1245 l0 -215 95 0 95 0 0 30 c0 29 -1 29 -62 32 l-63 3 -3 63
-3 62 66 0 65 0 0 29 c0 32 -19 44 -56 35 -13 -3 -35 -3 -49 0 -23 6 -25 11
-25 61 l0 55 65 0 65 0 0 30 0 30 -95 0 -95 0 0 -215z"/>
<path d="M2147 1438 c-9 -31 -1 -38 44 -38 l39 0 0 -185 0 -185 30 0 30 0 0
185 0 185 40 0 c38 0 40 2 40 30 l0 30 -109 0 c-103 0 -109 -1 -114 -22z"/>
<path d="M2420 1290 c0 -133 3 -177 15 -200 29 -55 110 -77 161 -44 48 32 54
59 54 244 l0 170 -30 0 -30 0 0 -169 c0 -183 -5 -201 -54 -201 -50 0 -56 23
-56 203 l0 167 -30 0 -30 0 0 -170z"/>
<path d="M2720 1245 l0 -215 30 0 30 0 0 95 0 95 44 0 c62 0 76 -22 76 -117
l0 -73 30 0 30 0 0 70 c0 41 -7 86 -17 111 -15 38 -15 43 0 69 10 16 17 47 17
70 0 34 -6 48 -34 76 -33 33 -36 34 -120 34 l-86 0 0 -215z m170 140 c16 -19
16 -61 1 -79 -15 -18 -64 -30 -91 -21 -17 5 -20 15 -20 61 l0 54 49 0 c31 0
53 -5 61 -15z"/>
<path d="M3030 1246 l0 -216 30 0 30 0 0 116 c0 80 3 113 11 109 6 -4 33 -56
61 -116 44 -93 54 -109 74 -109 l24 0 0 215 0 215 -30 0 -30 0 0 -120 c0 -66
-4 -120 -9 -120 -5 0 -31 53 -58 118 -44 105 -52 117 -76 120 l-27 3 0 -215z"/>
<path d="M3330 1245 l0 -215 30 0 30 0 0 215 0 215 -30 0 -30 0 0 -215z"/>
<path d="M1870 906 c0 -9 7 -16 16 -16 9 0 14 5 12 12 -6 18 -28 21 -28 4z"/>
<path d="M1617 898 c-27 -21 -31 -61 -9 -89 18 -21 31 -25 99 -29 l78 -5 3
-32 c4 -38 -5 -42 -117 -45 -49 -2 -76 -7 -79 -15 -3 -10 19 -13 86 -13 106 0
135 15 135 69 0 50 -23 65 -111 71 l-77 5 0 30 0 30 83 3 c64 2 82 6 82 17 0
20 -148 21 -173 3z"/>
<path d="M2780 895 c0 -12 16 -15 81 -15 l80 0 -3 -32 -3 -33 -73 -5 c-87 -6
-102 -19 -102 -92 l0 -48 106 0 c80 0 105 3 102 13 -3 8 -33 13 -91 15 l-87 3
0 39 0 40 68 0 c84 0 106 13 106 65 0 52 -22 65 -111 65 -58 0 -73 -3 -73 -15z"/>
<path d="M3084 901 c-35 -15 -54 -51 -54 -104 0 -90 38 -127 131 -127 92 0
129 37 129 130 0 37 -6 56 -24 77 -21 24 -31 28 -92 30 -38 2 -79 -1 -90 -6z
m166 -41 c28 -28 27 -98 -1 -134 -19 -24 -27 -26 -89 -26 -62 0 -70 2 -89 26
-28 36 -29 106 -1 134 16 16 33 20 90 20 57 0 74 -4 90 -20z"/>
<path d="M3152 804 c-34 -25 -62 -52 -62 -60 0 -8 2 -14 5 -14 14 0 135 96
135 107 0 21 -13 16 -78 -33z"/>
<path d="M3340 896 c0 -9 9 -16 20 -16 19 0 20 -7 20 -105 0 -88 3 -105 15
-105 13 0 15 17 13 118 l-3 117 -32 3 c-25 2 -33 -1 -33 -12z"/>
<path d="M3487 892 c-10 -10 -17 -33 -17 -50 0 -45 30 -62 112 -62 65 0 68 -1
68 -23 0 -39 -30 -57 -93 -57 -44 0 -57 -3 -57 -15 0 -25 110 -20 144 6 24 19
26 26 26 99 0 73 -2 80 -26 99 -36 28 -133 30 -157 3z m153 -27 c6 -8 10 -22
8 -32 -3 -15 -14 -18 -78 -18 -64 0 -75 3 -78 18 -8 39 5 47 71 47 44 0 68 -5
77 -15z"/>
<path d="M1870 761 c0 -75 3 -91 15 -91 13 0 15 14 13 87 -2 58 -7 88 -15 91
-10 3 -13 -19 -13 -87z"/>
<path d="M1960 760 c0 -53 4 -90 10 -90 6 0 10 32 10 75 l0 75 58 0 c32 0 63
-5 70 -12 7 -7 12 -39 12 -75 0 -35 4 -63 10 -63 6 0 10 30 10 69 0 63 -2 71
-26 90 -21 16 -41 21 -90 21 l-64 0 0 -90z"/>
<path d="M2217 832 c-12 -13 -17 -37 -17 -75 0 -46 4 -58 22 -71 31 -22 138
-22 138 -1 0 12 -13 15 -59 15 -70 0 -83 12 -79 72 l3 43 68 3 c51 2 67 6 67
17 0 24 -122 21 -143 -3z"/>
<path d="M2436 834 c-11 -10 -16 -34 -16 -74 0 -49 4 -61 22 -74 29 -21 98
-21 98 -2 0 11 -14 16 -47 18 l-48 3 0 55 0 55 59 3 c32 2 63 -1 69 -7 18 -18
-12 -41 -54 -41 -28 0 -39 -4 -39 -15 0 -24 75 -20 100 5 24 24 25 38 4 68
-13 18 -25 22 -74 22 -40 0 -64 -5 -74 -16z"/>
</g>
</svg>
